# xmcd
#
# Track frame offsets:
#	150
#	12577
#	30485
#	46649
#	57893
#	72709
#	87899
#	100121
#	114734
#	130419
#	144427
#	163360
#	181614
#
# Disc length: 2638 seconds
#
# Revision: 2
# Processed by: cddbd v1.5.2PL0 Copyright (c) Steve Scherf et al.
# Submitted via: audiograbber 1.83.01
#
DISCID=af0a4c0d
DTITLE=JVG - JVG.fi
DYEAR=2012
DGENRE=Rap
TTITLE0=Kuohkeet Vaahtoo
TTITLE1=Töttöröö Feat. Ruudolf and Karrikoira
TTITLE2=Kyl Sä Tiiät Feat. Juno
TTITLE3=Lyijyy
TTITLE4=Sun Stiflat Feat. Heikki Kuula and Sini Sabotage
TTITLE5=Kran Turismo Feat. Raappana
TTITLE6=Teemu Ja Jari
TTITLE7=Karjala Takaisin Feat. Freeman
TTITLE8=Skimbaa
TTITLE9=Jobeissa Feat. Härjis
TTITLE10=Hesast Stadiin Feat. Superjanne and Paperi-T
TTITLE11=Miesjuustot Feat. Heikki Kuula
TTITLE12=Soitellaan
EXTD=
EXTT0=
EXTT1=
EXTT2=
EXTT3=
EXTT4=
EXTT5=
EXTT6=
EXTT7=
EXTT8=
EXTT9=
EXTT10=
EXTT11=
EXTT12=
PLAYORDER=
